<svg xmlns="http://www.w3.org/2000/svg" width="24" height="24" viewBox="0 0 24 24">
    <g fill="none" fill-rule="evenodd">
        <path stroke="#FFF" stroke-opacity=".489" stroke-width=".01" d="M.005.005h23.99v23.99H.005z"/>
        <circle cx="12" cy="12" r="8" stroke="#000"/>
        <path fill="#000" d="M15.252 14.12c0 .616-.236 1.138-.708 1.566-.472.428-1.164.666-2.076.714v1.38h-.6v-1.368a5.459 5.459 0 0 1-1.65-.342c-.516-.196-.922-.446-1.218-.75l.348-.684c.28.272.646.5 1.098.684.452.184.926.292 1.422.324v-3.156a9.293 9.293 0 0 1-1.38-.438 2.34 2.34 0 0 1-.918-.684c-.244-.3-.366-.698-.366-1.194 0-.616.224-1.134.672-1.554.448-.42 1.112-.666 1.992-.738V6.5h.6v1.368c.456.016.898.09 1.326.222.428.132.798.306 1.11.522l-.3.708a4.612 4.612 0 0 0-1.044-.492 4.1 4.1 0 0 0-1.092-.204v3.18c.592.144 1.076.29 1.452.438.376.148.692.374.948.678.256.304.384.704.384 1.2zm-5.172-3.972c0 .416.154.732.462.948.308.216.75.4 1.326.552v-3c-.592.048-1.038.21-1.338.486-.3.276-.45.614-.45 1.014zm2.388 5.496c.632-.048 1.108-.204 1.428-.468.32-.264.48-.6.48-1.008 0-.432-.164-.756-.492-.972-.328-.216-.8-.4-1.416-.552v3z"/>
    </g>
</svg>
