<svg xmlns="http://www.w3.org/2000/svg" xmlns:xlink="http://www.w3.org/1999/xlink" width="32" height="32" viewBox="0 0 32 32">
    <defs>
        <path id="a" d="M9.333 12a2.667 2.667 0 1 1 0-5.333 2.667 2.667 0 0 1 0 5.333zm0 13.333a2.667 2.667 0 1 1 0-5.333 2.667 2.667 0 0 1 0 5.333zM22.667 12a2.667 2.667 0 1 1 0-5.333 2.667 2.667 0 0 1 0 5.333zm0 13.333a2.667 2.667 0 1 1 0-5.333 2.667 2.667 0 0 1 0 5.333z"/>
    </defs>
    <g fill="none" fill-rule="evenodd">
        <path stroke="#FFF" stroke-opacity=".489" stroke-width=".01" d="M.005.005h31.99v31.99H.005z"/>
        <mask id="b" fill="#fff">
            <use xlink:href="#a"/>
        </mask>
        <use fill="#D8D8D8" xlink:href="#a"/>
        <g fill="#000" mask="url(#b)">
            <path d="M0 0h32v32H0z"/>
        </g>
    </g>
</svg>
