<svg xmlns="http://www.w3.org/2000/svg" width="24" height="24" viewBox="0 0 24 24">
    <g fill="none" fill-rule="evenodd">
        <path stroke="#FFF" stroke-opacity=".489" stroke-width=".01" d="M.005.005h23.99v23.99H.005z"/>
        <path fill="#F7EA73" stroke="#000" d="M17.005 15.23l.59 4.659c.018.135-.009.205-.027.226-.035.04-.14.007-.234-.038l-4.29-1.995a2.536 2.536 0 0 0-1.043-.206c-.388 0-.757.073-1.041.206l-4.292 1.995c-.152.072-.21.066-.234.038-.018-.02-.044-.09-.025-.228l.588-4.66c.076-.646-.209-1.516-.649-1.98l-3.236-3.43c-.109-.117-.115-.19-.111-.203.005-.013.053-.069.207-.099l4.655-.886c.631-.115 1.373-.651 1.69-1.22L12.005 3l2.445 4.41c.317.568 1.06 1.104 1.688 1.218l4.65.887c.158.03.208.087.211.099.004.012-.004.085-.114.202l-3.23 3.43c-.447.471-.733 1.344-.65 1.984z"/>
    </g>
</svg>
